<svg width="24" height="25" viewBox="0 0 24 25" fill="none" xmlns="http://www.w3.org/2000/svg">
<path d="M18.04 14.5037C17.62 14.9137 17.38 15.5037 17.44 16.1337C17.53 17.2137 18.52 18.0037 19.6 18.0037H21.5V19.1937C21.5 21.2637 19.81 22.9537 17.74 22.9537H7.63C7.94 22.6937 8.21 22.3737 8.42 22.0137C8.79 21.4137 9 20.7037 9 19.9537C9 17.7437 7.21 15.9537 5 15.9537C4.06 15.9537 3.19 16.2837 2.5 16.8337V12.4637C2.5 10.3937 4.19 8.70367 6.26 8.70367H17.74C19.81 8.70367 21.5 10.3937 21.5 12.4637V13.9037H19.48C18.92 13.9037 18.41 14.1237 18.04 14.5037Z" stroke="#D2AFAE" stroke-width="1.5" stroke-linecap="round" stroke-linejoin="round"/>
<path d="M2.5 13.3637V8.79372C2.5 7.60372 3.23 6.54367 4.34 6.12367L12.28 3.12367C13.52 2.65367 14.85 3.5737 14.85 4.9037V8.70369" stroke="#D2AFAE" stroke-width="1.5" stroke-linecap="round" stroke-linejoin="round"/>
<path d="M22.5588 14.9238V16.9839C22.5588 17.5339 22.1188 17.9838 21.5588 18.0038H19.5988C18.5188 18.0038 17.5288 17.2139 17.4388 16.1339C17.3788 15.5039 17.6188 14.9138 18.0388 14.5038C18.4088 14.1238 18.9188 13.9039 19.4788 13.9039H21.5588C22.1188 13.9239 22.5588 14.3738 22.5588 14.9238Z" stroke="#D2AFAE" stroke-width="1.5" stroke-linecap="round" stroke-linejoin="round"/>
<path d="M7 12.9537H14" stroke="#D2AFAE" stroke-width="1.5" stroke-linecap="round" stroke-linejoin="round"/>
<path d="M9 19.9537C9 20.7037 8.79 21.4137 8.42 22.0137C8.21 22.3737 7.94 22.6937 7.63 22.9537C6.93 23.5837 6.01 23.9537 5 23.9537C3.54 23.9537 2.27 23.1737 1.58 22.0137C1.21 21.4137 1 20.7037 1 19.9537C1 18.6937 1.58 17.5637 2.5 16.8337C3.19 16.2837 4.06 15.9537 5 15.9537C7.21 15.9537 9 17.7437 9 19.9537Z" stroke="#D2AFAE" stroke-width="1.5" stroke-miterlimit="10" stroke-linecap="round" stroke-linejoin="round"/>
<path d="M6.49171 19.9332H3.51172" stroke="#D2AFAE" stroke-width="1.5" stroke-miterlimit="10" stroke-linecap="round" stroke-linejoin="round"/>
<path d="M5 18.4732V21.4632" stroke="#D2AFAE" stroke-width="1.5" stroke-miterlimit="10" stroke-linecap="round" stroke-linejoin="round"/>
</svg>
