<svg width="24" height="25" viewBox="0 0 24 25" fill="none" xmlns="http://www.w3.org/2000/svg">
<path d="M10.7499 3.40368C11.4499 2.81368 12.5799 2.81368 13.2599 3.40368L14.8399 4.75368C15.1399 5.00368 15.7099 5.21368 16.1099 5.21368H17.8099C18.8699 5.21368 19.7399 6.08368 19.7399 7.14368V8.84368C19.7399 9.24368 19.9499 9.80368 20.1999 10.1037L21.5499 11.6837C22.1399 12.3837 22.1399 13.5137 21.5499 14.1937L20.1999 15.7737C19.9499 16.0737 19.7399 16.6337 19.7399 17.0337V18.7337C19.7399 19.7937 18.8699 20.6637 17.8099 20.6637H16.1099C15.7099 20.6637 15.1499 20.8737 14.8499 21.1237L13.2699 22.4737C12.5699 23.0637 11.4399 23.0637 10.7599 22.4737L9.17988 21.1237C8.87988 20.8737 8.30988 20.6637 7.91988 20.6637H6.16988C5.10988 20.6637 4.23988 19.7937 4.23988 18.7337V17.0237C4.23988 16.6337 4.03988 16.0637 3.78988 15.7737L2.43988 14.1837C1.85988 13.4937 1.85988 12.3737 2.43988 11.6837L3.78988 10.0937C4.03988 9.79368 4.23988 9.23368 4.23988 8.84368V7.15368C4.23988 6.09368 5.10988 5.22368 6.16988 5.22368H7.89988C8.29988 5.22368 8.85988 5.01368 9.15988 4.76368L10.7499 3.40368Z" stroke="#D2AFAE" stroke-width="1.5" stroke-linecap="round" stroke-linejoin="round"/>
<path d="M12 9.08368V13.9137" stroke="#D2AFAE" stroke-width="1.5" stroke-linecap="round" stroke-linejoin="round"/>
<path d="M11.9941 16.9537H12.0031" stroke="#D2AFAE" stroke-width="2" stroke-linecap="round" stroke-linejoin="round"/>
</svg>
