<svg width="24" height="25" viewBox="0 0 24 25" fill="none" xmlns="http://www.w3.org/2000/svg">
<path d="M12.1601 11.8237C12.0601 11.8137 11.9401 11.8137 11.8301 11.8237C9.45006 11.7437 7.56006 9.79367 7.56006 7.39367C7.56006 4.94367 9.54006 2.95367 12.0001 2.95367C14.4501 2.95367 16.4401 4.94367 16.4401 7.39367C16.4301 9.79367 14.5401 11.7437 12.1601 11.8237Z" stroke="#D2AFAE" stroke-width="1.5" stroke-linecap="round" stroke-linejoin="round"/>
<path d="M7.15997 15.5137C4.73997 17.1337 4.73997 19.7737 7.15997 21.3837C9.90997 23.2237 14.42 23.2237 17.17 21.3837C19.59 19.7637 19.59 17.1237 17.17 15.5137C14.43 13.6837 9.91997 13.6837 7.15997 15.5137Z" stroke="#D2AFAE" stroke-width="1.5" stroke-linecap="round" stroke-linejoin="round"/>
</svg>
